<svg width="512" height="512" viewBox="0 0 512 512" xmlns="http://www.w3.org/2000/svg">
  <defs>
    <linearGradient id="bgGradient" x1="0%" y1="0%" x2="100%" y2="100%">
      <stop offset="0%" style="stop-color:#FFF8F0;stop-opacity:1" />
      <stop offset="50%" style="stop-color:#FFE5D9;stop-opacity:1" />
      <stop offset="100%" style="stop-color:#FFB4A2;stop-opacity:1" />
    </linearGradient>
  </defs>
  
  <!-- Background -->
  <rect width="512" height="512" fill="url(#bgGradient)" rx="80"/>
  
  <!-- Book Icon -->
  <g transform="translate(128, 128)">
    <!-- Book Base -->
    <path d="M128 32c-35.3 0-64 28.7-64 64v256c0 35.3 28.7 64 64 64h128V32H128z" fill="#FFB4A2" opacity="0.9"/>
    <path d="M128 32h128v384H128c-35.3 0-64-28.7-64-64V96c0-35.3 28.7-64 64-64z" fill="#FFE5D9" opacity="0.8"/>
    
    <!-- Book Pages -->
    <line x1="160" y1="80" x2="240" y2="80" stroke="#FFF8F0" stroke-width="4" stroke-linecap="round"/>
    <line x1="160" y1="120" x2="240" y2="120" stroke="#FFF8F0" stroke-width="4" stroke-linecap="round"/>
    <line x1="160" y1="160" x2="200" y2="160" stroke="#FFF8F0" stroke-width="4" stroke-linecap="round"/>
    
    <!-- Graduation Cap -->
    <g transform="translate(80, 200)">
      <path d="M32 16L128 64l96-48v32l-96 48-96-48V16z" fill="#C8D5B9"/>
      <ellipse cx="128" cy="80" rx="80" ry="8" fill="#B8E0D2" opacity="0.7"/>
    </g>
  </g>
</svg>